PathFileType	4	(X/Y/Z)	TVC_16_Cal_02_0_static_RCNL2025.trc
DataRate	CameraRate	NumFrames	NumMarkers	Units	OrigDataRate	OrigDataStartFrame	OrigNumFrames
100	100	10	27	mm	100	1	18
Frame#	Time	R_Shoulder			L_Shoulder			C7			J_Notch			R_Elbow			L_Elbow			R_Wrist			L_Wrist			R_Asis			L_Asis			R_Psis			L_Psis			Sacral			Thoracic			Sternum			R_Thigh_Lateral			R_Knee_Lateral			R_Shank_Lateral			R_Ankle_Lateral			R_Heel			R_Toe			L_Thigh_Lateral			L_Knee_Lateral			L_Shank_Lateral			L_Ankle_Lateral			L_Heel			L_Toe		
		X1	Y1	Z1	X2	Y2	Z2	X3	Y3	Z3	X4	Y4	Z4	X5	Y5	Z5	X6	Y6	Z6	X7	Y7	Z7	X8	Y8	Z8	X9	Y9	Z9	X10	Y10	Z10	X11	Y11	Z11	X12	Y12	Z12	X13	Y13	Z13	X14	Y14	Z14	X15	Y15	Z15	X16	Y16	Z16	X17	Y17	Z17	X18	Y18	Z18	X19	Y19	Z19	X20	Y20	Z20	X21	Y21	Z21	X22	Y22	Z22	X23	Y23	Z23	X24	Y24	Z24	X25	Y25	Z25	X26	Y26	Z26	X27	Y27	Z27
1	0.00000000	-304.351288	1334.873535	54.864162	-312.559631	1325.885742	-265.595551	-370.789276	1366.946167	-103.617714	-225.217194	1248.262573	-94.706528	-338.869781	1016.417358	127.188362	-352.299530	1032.109741	-390.514557	-272.000160	809.833313	81.588383	-268.118546	850.247620	-468.191162	-278.963501	867.645935	-19.640524	-303.977600	911.707031	-278.789001	-454.223663	931.074158	-75.781059	-461.961975	943.200989	-182.665451	-458.092819	937.137573	-129.223255	-426.257111	1106.776733	-114.624222	-192.133865	1049.559326	-117.592743	-366.138397	592.953857	57.639713	-386.576447	425.469299	-29.877014	-415.618958	271.419464	6.682665	-436.802032	58.039246	-86.716774	-477.629364	51.702351	-143.646912	-308.267456	42.651791	-109.182365	-334.730499	620.601929	-381.906403	-330.209930	431.719055	-307.452301	-362.049622	302.325348	-365.812653	-377.021667	69.372200	-297.336548	-419.643616	63.458572	-250.233994	-240.365250	44.289230	-265.300507
2	0.01000000	-304.546417	1334.827271	55.017094	-312.243103	1325.904663	-265.545166	-370.698792	1366.934692	-103.646683	-225.240555	1248.256836	-94.332550	-339.147552	1016.313049	127.265114	-351.852692	1032.231934	-390.633850	-272.024330	809.841675	81.580719	-267.906372	850.294403	-468.286194	-278.786560	867.837646	-19.151888	-303.474579	911.678223	-278.511322	-454.248199	931.140869	-75.921974	-461.720154	943.174866	-182.879333	-457.984177	937.157867	-129.400654	-426.188507	1106.723267	-114.777718	-191.789230	1049.676514	-117.233475	-366.155334	593.289307	57.689499	-386.549103	425.469238	-29.839209	-415.736115	271.429840	6.652304	-436.771393	58.017879	-86.728180	-477.630798	51.704742	-143.653687	-308.183105	42.639378	-109.124954	-332.818390	620.471741	-381.430145	-329.547699	431.744659	-307.390045	-361.101318	302.286682	-365.953857	-376.916656	69.441460	-297.761566	-419.670715	63.503559	-250.902206	-240.305984	44.281940	-265.122589
3	0.02000000	-304.899261	1334.743530	55.167797	-311.915070	1325.888062	-265.471039	-370.610840	1366.921753	-103.713997	-225.219971	1248.293579	-94.118546	-339.628296	1016.215393	127.259636	-351.431976	1032.308960	-390.723816	-272.027023	809.851196	81.575302	-267.659737	850.288818	-468.257401	-278.568939	868.128540	-18.651825	-302.772369	911.734436	-278.171387	-454.222839	931.064270	-76.209702	-461.348785	943.101990	-183.287308	-457.785812	937.083130	-129.748505	-426.081909	1106.693115	-114.878304	-191.482346	1049.770996	-116.786995	-366.044861	593.441101	57.681293	-386.563751	425.502319	-29.796310	-415.799896	271.378387	6.702303	-436.799286	58.052166	-86.767006	-477.579163	51.556652	-143.691299	-308.254333	42.591274	-109.199982	-331.094910	620.459167	-381.052429	-328.740875	431.676727	-307.302399	-360.295654	302.460663	-366.358582	-376.740326	69.407593	-298.257690	-419.799713	63.540642	-251.591583	-240.364517	44.232868	-265.005768
4	0.03000000	-305.293396	1334.651855	55.309711	-311.546112	1325.870117	-265.436096	-370.582428	1366.883423	-103.712631	-225.202545	1248.528564	-93.995171	-340.131073	1016.173767	127.362953	-351.031433	1032.412231	-390.785400	-272.081955	809.856964	81.520195	-267.352081	850.343323	-468.367889	-278.375854	868.231995	-18.109240	-302.118744	911.669617	-277.867523	-454.117981	931.012085	-76.563622	-461.014374	943.041321	-183.558456	-457.566177	937.026703	-130.061039	-425.982269	1106.573975	-115.083679	-191.012497	1049.952271	-116.405739	-365.986328	593.314026	57.689354	-386.535828	425.498932	-29.801756	-415.808838	271.365326	6.681925	-436.772675	57.983368	-86.808357	-477.630096	51.560040	-143.757446	-308.291809	42.623985	-109.164268	-330.043823	620.497131	-380.939880	-327.921295	431.737610	-307.720520	-359.472809	302.511078	-366.556641	-376.606720	69.379929	-298.721466	-419.940918	63.549713	-252.280579	-240.456467	44.126507	-264.837860
5	0.04000000	-305.734467	1334.588257	55.373692	-311.270050	1325.921997	-265.403992	-370.604645	1366.838501	-103.849236	-225.144348	1248.405396	-93.696983	-340.410950	1016.050293	127.433861	-350.586609	1032.508179	-390.937469	-272.150696	809.903564	81.592167	-267.039719	850.402710	-468.420425	-278.224823	868.275269	-17.676247	-301.323639	911.507690	-277.575714	-454.014191	930.948059	-76.935966	-460.487885	942.875366	-183.990784	-457.251038	936.911713	-130.463375	-425.806152	1106.544312	-115.349571	-190.694870	1050.067139	-116.000305	-365.906860	593.299377	57.719959	-386.515869	425.467316	-29.707787	-415.811035	271.369354	6.714367	-436.773438	58.015972	-86.804001	-477.601471	51.568970	-143.836731	-308.390656	42.602791	-109.087387	-328.189514	620.376404	-380.790405	-327.119476	431.631775	-307.752197	-358.588593	302.565521	-366.788391	-376.548096	68.914246	-298.543793	-419.965973	63.721478	-252.742432	-240.395081	43.993954	-264.735657
6	0.05000000	-306.136078	1334.449951	55.420967	-311.168182	1326.029663	-265.430634	-370.625702	1366.827515	-103.961288	-225.122833	1248.535034	-93.644516	-340.930206	1015.981873	127.464462	-350.194122	1032.573364	-391.089539	-272.158844	809.931580	81.554913	-266.655350	850.450806	-468.534195	-278.089233	868.348511	-17.297949	-300.438324	911.337219	-277.264771	-453.868988	930.882874	-77.313522	-460.052368	942.798035	-184.387772	-456.960678	936.840454	-130.850647	-425.681427	1106.419922	-115.586578	-190.390808	1050.138916	-115.700432	-365.899658	593.162415	57.744381	-386.370026	425.502747	-29.632103	-415.751648	271.365234	6.794046	-436.783051	57.988693	-86.804604	-477.625641	51.601295	-143.879929	-308.345428	42.637882	-109.105728	-326.315521	620.114868	-380.752441	-326.250671	431.380402	-307.427795	-357.638428	302.492493	-366.674438	-376.090332	69.296150	-299.769226	-419.872192	63.689342	-253.388565	-240.293106	43.884937	-264.622131
7	0.06000000	-306.718170	1334.341064	55.566311	-310.739044	1325.961426	-265.457550	-370.718872	1366.801636	-104.101372	-225.188187	1248.534790	-93.272934	-341.325714	1015.876282	127.509850	-349.788544	1032.684326	-391.301239	-272.141182	809.956329	81.507950	-266.296234	850.465729	-468.678558	-277.885742	868.365906	-16.986576	-299.545746	911.152710	-276.961945	-453.659973	930.825317	-77.759331	-459.457153	942.699219	-184.856842	-456.558563	936.762268	-131.308086	-425.467499	1106.255371	-115.990776	-190.032776	1050.299683	-115.411278	-366.019104	593.242004	57.893459	-386.159424	425.504089	-29.585552	-415.662781	271.407471	6.866581	-436.782257	57.985558	-86.802902	-477.568451	51.591999	-143.809418	-308.338501	42.650734	-109.100632	-324.551239	619.923218	-380.361938	-325.086456	431.047180	-307.242859	-356.437378	302.520935	-366.614685	-375.788086	69.309364	-300.375732	-419.508118	63.123661	-254.402252	-240.279785	43.653057	-264.485596
8	0.07000000	-307.222260	1334.216919	55.599232	-310.520508	1325.931763	-265.502350	-370.812958	1366.754761	-104.326576	-225.165070	1248.606201	-93.063065	-341.860352	1015.767151	127.612442	-349.391083	1032.696777	-391.467072	-272.239067	809.956635	81.492790	-265.674561	850.569214	-468.779938	-277.603363	868.409851	-16.843851	-298.554535	910.920959	-276.760651	-453.426971	930.734558	-78.212898	-458.732666	942.469910	-185.284851	-456.079819	936.602234	-131.748875	-425.208710	1106.102051	-116.345284	-189.597748	1050.514282	-115.219475	-366.216522	593.351257	57.927631	-385.863861	425.195007	-29.342064	-415.458160	271.274414	6.829502	-436.721283	57.950401	-86.856186	-477.554321	51.609272	-143.742676	-308.393829	42.606117	-109.084633	-322.657532	619.770203	-380.141632	-324.118927	430.888641	-307.248199	-355.687744	302.789124	-366.490295	-375.441071	69.258888	-300.807800	-419.434387	63.041325	-255.203903	-240.196884	43.401600	-264.376831
9	0.08000000	-307.820251	1334.106445	55.642399	-310.341736	1325.946167	-265.592621	-370.921753	1366.760498	-104.602081	-225.169617	1248.735107	-93.003937	-342.264282	1015.615601	127.622765	-349.048981	1032.730347	-391.634766	-272.304993	809.914551	81.569462	-265.371269	850.639313	-468.862259	-277.376282	868.518799	-16.659966	-297.564758	910.802368	-276.686920	-453.014191	930.572327	-78.664413	-458.009125	942.240906	-185.735947	-455.511658	936.406616	-132.200180	-424.930176	1105.965576	-116.687073	-189.192856	1050.744385	-114.885201	-366.520782	593.465210	57.949341	-385.627411	425.121399	-29.265997	-415.226105	271.292297	6.802397	-436.740021	58.015755	-86.806152	-477.597076	51.570797	-143.862289	-308.400818	42.602913	-109.064941	-320.777161	619.867981	-380.100311	-323.177246	430.746246	-307.386414	-353.942383	302.031952	-366.993103	-375.092804	69.276337	-301.119904	-419.631775	63.513439	-255.691589	-239.964752	43.112522	-264.379517
10	0.09000000	-308.338287	1334.050049	55.542744	-310.098267	1325.894775	-265.704102	-371.045746	1366.760986	-104.820473	-225.117157	1248.909058	-93.003586	-342.634949	1015.498840	127.515053	-348.693665	1032.753540	-391.876648	-272.342972	809.935089	81.588181	-265.082314	850.592682	-469.093872	-277.063477	868.607971	-16.478687	-296.536621	910.661804	-276.603455	-452.610931	930.416443	-79.086243	-457.268799	942.056091	-186.226517	-454.939865	936.236267	-132.656380	-424.693115	1105.808594	-117.110489	-188.634598	1050.992432	-114.657150	-366.717255	593.702698	57.955578	-385.366394	425.004700	-29.263481	-414.983856	271.248444	6.662235	-436.820068	58.026852	-86.861206	-477.552612	51.623013	-143.839615	-308.378784	42.617004	-109.068405	-319.160004	619.678406	-379.550873	-322.182007	430.523102	-307.398682	-352.814117	301.772247	-367.084564	-374.663788	69.231873	-301.502991	-419.586975	63.611969	-256.214661	-239.790207	42.924686	-264.328766
